<?xml version="1.0" encoding="UTF-8" standalone="no"?>
<!DOCTYPE svg PUBLIC "-//W3C//DTD SVG 1.1//EN"
 "http://www.w3.org/Graphics/SVG/1.1/DTD/svg11.dtd">
<!-- Generated by graphviz version 2.47.1 (20210417.1919)
 -->
<!-- Title: D Pages: 1 -->
<svg width="299pt" height="653pt"
 viewBox="0.00 0.00 299.00 653.00" xmlns="http://www.w3.org/2000/svg" xmlns:xlink="http://www.w3.org/1999/xlink">
<g id="graph0" class="graph" transform="scale(1 1) rotate(0) translate(4 649)">
<title>D</title>
<polygon fill="white" stroke="transparent" points="-4,4 -4,-649 295,-649 295,4 -4,4"/>
<!-- consensus -->
<g id="node1" class="node">
<title>consensus</title>
<polygon fill="grey" stroke="grey" points="76.5,-572 5.5,-572 5.5,-536 76.5,-536 76.5,-572"/>
<text text-anchor="middle" x="41" y="-550.3" font-family="Times,serif" font-size="14.00">consensus</text>
</g>
<!-- gather_cons -->
<g id="node5" class="node">
<title>gather_cons</title>
<polygon fill="none" stroke="black" points="82,-464 0,-464 0,-428 82,-428 82,-464"/>
<text text-anchor="middle" x="41" y="-442.3" font-family="Times,serif" font-size="14.00">gather_cons</text>
</g>
<!-- consensus&#45;&gt;gather_cons -->
<g id="edge1" class="edge">
<title>consensus&#45;&gt;gather_cons</title>
<path fill="none" stroke="black" d="M41,-535.97C41,-519.38 41,-493.88 41,-474.43"/>
<polygon fill="black" stroke="black" points="44.5,-474.34 41,-464.34 37.5,-474.34 44.5,-474.34"/>
</g>
<!-- reference -->
<g id="node2" class="node">
<title>reference</title>
<polygon fill="grey" stroke="grey" points="212.5,-645 145.5,-645 145.5,-609 212.5,-609 212.5,-645"/>
<text text-anchor="middle" x="179" y="-623.3" font-family="Times,serif" font-size="14.00">reference</text>
</g>
<!-- cat_ref -->
<g id="node3" class="node">
<title>cat_ref</title>
<polygon fill="none" stroke="black" points="175,-572 121,-572 121,-536 175,-536 175,-572"/>
<text text-anchor="middle" x="148" y="-550.3" font-family="Times,serif" font-size="14.00">cat_ref</text>
</g>
<!-- reference&#45;&gt;cat_ref -->
<g id="edge2" class="edge">
<title>reference&#45;&gt;cat_ref</title>
<path fill="none" stroke="black" d="M171.5,-608.81C167.92,-600.62 163.55,-590.62 159.56,-581.48"/>
<polygon fill="black" stroke="black" points="162.64,-579.79 155.44,-572.03 156.23,-582.59 162.64,-579.79"/>
</g>
<!-- aln_ref -->
<g id="node9" class="node">
<title>aln_ref</title>
<polygon fill="none" stroke="black" stroke-dasharray="5,2" points="240.5,-518 185.5,-518 185.5,-482 240.5,-482 240.5,-518"/>
<text text-anchor="middle" x="213" y="-496.3" font-family="Times,serif" font-size="14.00">aln_ref</text>
</g>
<!-- reference&#45;&gt;aln_ref -->
<g id="edge3" class="edge">
<title>reference&#45;&gt;aln_ref</title>
<path fill="none" stroke="black" d="M183.66,-608.88C189.32,-588.05 198.95,-552.64 205.63,-528.09"/>
<polygon fill="black" stroke="black" points="209.04,-528.88 208.29,-518.31 202.29,-527.04 209.04,-528.88"/>
</g>
<!-- makeblastdb -->
<g id="node4" class="node">
<title>makeblastdb</title>
<polygon fill="none" stroke="black" points="186,-464 100,-464 100,-428 186,-428 186,-464"/>
<text text-anchor="middle" x="143" y="-442.3" font-family="Times,serif" font-size="14.00">makeblastdb</text>
</g>
<!-- cat_ref&#45;&gt;makeblastdb -->
<g id="edge4" class="edge">
<title>cat_ref&#45;&gt;makeblastdb</title>
<path fill="none" stroke="black" d="M147.2,-535.97C146.41,-519.38 145.21,-493.88 144.29,-474.43"/>
<polygon fill="black" stroke="black" points="147.79,-474.16 143.82,-464.34 140.79,-474.49 147.79,-474.16"/>
</g>
<!-- blast -->
<g id="node6" class="node">
<title>blast</title>
<polygon fill="none" stroke="black" points="134,-391 80,-391 80,-355 134,-355 134,-391"/>
<text text-anchor="middle" x="107" y="-369.3" font-family="Times,serif" font-size="14.00">blast</text>
</g>
<!-- makeblastdb&#45;&gt;blast -->
<g id="edge5" class="edge">
<title>makeblastdb&#45;&gt;blast</title>
<path fill="none" stroke="black" d="M134.29,-427.81C130.08,-419.53 124.95,-409.41 120.28,-400.19"/>
<polygon fill="black" stroke="black" points="123.28,-398.37 115.63,-391.03 117.04,-401.53 123.28,-398.37"/>
</g>
<!-- gather_cons&#45;&gt;blast -->
<g id="edge6" class="edge">
<title>gather_cons&#45;&gt;blast</title>
<path fill="none" stroke="black" d="M56.98,-427.81C65.16,-419 75.28,-408.13 84.26,-398.46"/>
<polygon fill="black" stroke="black" points="86.93,-400.74 91.17,-391.03 81.8,-395.97 86.93,-400.74"/>
</g>
<!-- parse_blast -->
<g id="node7" class="node">
<title>parse_blast</title>
<polygon fill="none" stroke="black" points="145.5,-318 68.5,-318 68.5,-282 145.5,-282 145.5,-318"/>
<text text-anchor="middle" x="107" y="-296.3" font-family="Times,serif" font-size="14.00">parse_blast</text>
</g>
<!-- blast&#45;&gt;parse_blast -->
<g id="edge7" class="edge">
<title>blast&#45;&gt;parse_blast</title>
<path fill="none" stroke="black" d="M107,-354.81C107,-346.79 107,-337.05 107,-328.07"/>
<polygon fill="black" stroke="black" points="110.5,-328.03 107,-318.03 103.5,-328.03 110.5,-328.03"/>
</g>
<!-- blast_all -->
<g id="node8" class="node">
<title>blast_all</title>
<polygon fill="none" stroke="black" points="133,-177 71,-177 71,-141 133,-141 133,-177"/>
<text text-anchor="middle" x="102" y="-155.3" font-family="Times,serif" font-size="14.00">blast_all</text>
</g>
<!-- parse_blast&#45;&gt;blast_all -->
<g id="edge8" class="edge">
<title>parse_blast&#45;&gt;blast_all</title>
<path fill="none" stroke="black" d="M102.23,-281.69C100.91,-276.09 99.66,-269.82 99,-264 96.09,-238.17 97.4,-208.51 99.1,-187.5"/>
<polygon fill="black" stroke="black" points="102.6,-187.63 100.01,-177.36 95.63,-187.01 102.6,-187.63"/>
<text text-anchor="middle" x="119" y="-252.8" font-family="Times,serif" font-size="14.00">expand</text>
</g>
<!-- aln_to_ref -->
<g id="node11" class="node">
<title>aln_to_ref</title>
<polygon fill="none" stroke="black" stroke-dasharray="5,2" points="199,-231 127,-231 127,-195 199,-195 199,-231"/>
<text text-anchor="middle" x="163" y="-209.3" font-family="Times,serif" font-size="14.00">aln_to_ref</text>
</g>
<!-- parse_blast&#45;&gt;aln_to_ref -->
<g id="edge9" class="edge">
<title>parse_blast&#45;&gt;aln_to_ref</title>
<path fill="none" stroke="black" d="M127.65,-281.8C133.14,-276.5 138.73,-270.37 143,-264 147.75,-256.9 151.66,-248.49 154.72,-240.62"/>
<polygon fill="black" stroke="black" points="158.07,-241.67 158.15,-231.07 151.48,-239.31 158.07,-241.67"/>
</g>
<!-- all -->
<g id="node14" class="node">
<title>all</title>
<polygon fill="none" stroke="black" points="149,-36 95,-36 95,0 149,0 149,-36"/>
<text text-anchor="middle" x="122" y="-14.3" font-family="Times,serif" font-size="14.00">all</text>
</g>
<!-- blast_all&#45;&gt;all -->
<g id="edge10" class="edge">
<title>blast_all&#45;&gt;all</title>
<path fill="none" stroke="black" d="M104.45,-140.96C107.86,-117.3 114.05,-74.26 118.09,-46.15"/>
<polygon fill="black" stroke="black" points="121.57,-46.58 119.53,-36.18 114.64,-45.58 121.57,-46.58"/>
</g>
<!-- trim_ref -->
<g id="node10" class="node">
<title>trim_ref</title>
<polygon fill="none" stroke="black" stroke-dasharray="5,2" points="245,-318 183,-318 183,-282 245,-282 245,-318"/>
<text text-anchor="middle" x="214" y="-296.3" font-family="Times,serif" font-size="14.00">trim_ref</text>
</g>
<!-- aln_ref&#45;&gt;trim_ref -->
<g id="edge11" class="edge">
<title>aln_ref&#45;&gt;trim_ref</title>
<path fill="none" stroke="black" d="M213.09,-481.78C213.26,-447.31 213.65,-369.65 213.86,-328.22"/>
<polygon fill="black" stroke="black" points="217.36,-328.06 213.91,-318.04 210.36,-328.03 217.36,-328.06"/>
</g>
<!-- trim_ref&#45;&gt;aln_to_ref -->
<g id="edge12" class="edge">
<title>trim_ref&#45;&gt;aln_to_ref</title>
<path fill="none" stroke="black" d="M203.68,-281.8C196.49,-269.82 186.77,-253.62 178.63,-240.06"/>
<polygon fill="black" stroke="black" points="181.45,-237.95 173.31,-231.18 175.45,-241.55 181.45,-237.95"/>
</g>
<!-- guide_tree -->
<g id="node12" class="node">
<title>guide_tree</title>
<polygon fill="none" stroke="black" stroke-dasharray="5,2" points="291,-231 217,-231 217,-195 291,-195 291,-231"/>
<text text-anchor="middle" x="254" y="-209.3" font-family="Times,serif" font-size="14.00">guide_tree</text>
</g>
<!-- trim_ref&#45;&gt;guide_tree -->
<g id="edge13" class="edge">
<title>trim_ref&#45;&gt;guide_tree</title>
<path fill="none" stroke="black" d="M222.09,-281.8C227.68,-269.93 235.21,-253.93 241.55,-240.45"/>
<polygon fill="black" stroke="black" points="244.83,-241.71 245.92,-231.18 238.49,-238.73 244.83,-241.71"/>
</g>
<!-- iqtree -->
<g id="node13" class="node">
<title>iqtree</title>
<polygon fill="none" stroke="black" stroke-dasharray="5,2" points="190,-123 136,-123 136,-87 190,-87 190,-123"/>
<text text-anchor="middle" x="163" y="-101.3" font-family="Times,serif" font-size="14.00">iqtree</text>
</g>
<!-- aln_to_ref&#45;&gt;iqtree -->
<g id="edge14" class="edge">
<title>aln_to_ref&#45;&gt;iqtree</title>
<path fill="none" stroke="black" d="M163,-194.97C163,-178.38 163,-152.88 163,-133.43"/>
<polygon fill="black" stroke="black" points="166.5,-133.34 163,-123.34 159.5,-133.34 166.5,-133.34"/>
</g>
<!-- guide_tree&#45;&gt;iqtree -->
<g id="edge15" class="edge">
<title>guide_tree&#45;&gt;iqtree</title>
<path fill="none" stroke="black" d="M239.38,-194.97C224.54,-177.69 201.41,-150.74 184.49,-131.03"/>
<polygon fill="black" stroke="black" points="187.06,-128.65 177.89,-123.34 181.74,-133.21 187.06,-128.65"/>
</g>
<!-- iqtree&#45;&gt;all -->
<g id="edge16" class="edge">
<title>iqtree&#45;&gt;all</title>
<path fill="none" stroke="black" stroke-dasharray="5,2" d="M154.7,-86.8C148.98,-74.93 141.26,-58.93 134.76,-45.45"/>
<polygon fill="black" stroke="black" points="137.78,-43.66 130.28,-36.18 131.48,-46.7 137.78,-43.66"/>
<text text-anchor="middle" x="164" y="-57.8" font-family="Times,serif" font-size="14.00">expand</text>
</g>
</g>
</svg>
